<svg width="25" height="25" viewBox="0 0 25 25" fill="none" xmlns="http://www.w3.org/2000/svg">
<g id="Icon - Trash">
<path id="Vector" d="M15.24 9.5L14.894 18.5M10.106 18.5L9.76 9.5M19.728 6.29C20.07 6.342 20.41 6.397 20.75 6.456M19.728 6.29L18.66 20.173C18.6164 20.7382 18.3611 21.2662 17.945 21.6512C17.529 22.0363 16.9829 22.2502 16.416 22.25H8.584C8.0171 22.2502 7.47102 22.0363 7.05498 21.6512C6.63894 21.2662 6.38359 20.7382 6.34 20.173L5.272 6.29M19.728 6.29C18.5739 6.11552 17.4138 5.9831 16.25 5.893M5.272 6.29C4.93 6.341 4.59 6.396 4.25 6.455M5.272 6.29C6.42613 6.11552 7.58623 5.9831 8.75 5.893M16.25 5.893V4.977C16.25 3.797 15.34 2.813 14.16 2.776C13.0536 2.74064 11.9464 2.74064 10.84 2.776C9.66 2.813 8.75 3.798 8.75 4.977V5.893M16.25 5.893C13.7537 5.70008 11.2463 5.70008 8.75 5.893" stroke="white" stroke-width="1.5" stroke-linecap="round" stroke-linejoin="round"/>
</g>
</svg>
