<svg width="52" height="109" viewBox="0 0 52 109" fill="none" xmlns="http://www.w3.org/2000/svg">
<path d="M24.6112 57.5555V44.6389C23.2223 46.8055 20.4445 49.4722 14.9723 51.4722C14.9723 51.4722 16.3612 46.7222 20.2778 43.5278C16.6667 44.3056 11.2223 44.1944 3.77783 40.8889C3.77783 40.8889 10.6389 36.9722 18.4445 38.0278C14.0278 35.3333 8.50005 30 4.25005 18.9722C4.25005 18.9722 16.7501 22.3889 22.9723 32.9444C17.3334 19.3333 26.0001 2 26.0001 2C32.7501 17.1944 31.3056 27.2778 29.1112 32.8333C35.3612 22.3611 47.75 18.9722 47.75 18.9722C43.5 30 37.9723 35.3333 33.5556 38.0278C41.3612 36.9722 48.2223 40.8889 48.2223 40.8889C40.7778 44.1944 35.3334 44.3056 31.7223 43.5278C35.6389 46.7222 37.0278 51.4722 37.0278 51.4722C31.5556 49.4722 28.7778 46.8055 27.3889 44.6389V57.5555H24.6112Z" fill="#FF31FF" stroke="#1E1E1E"/>
<path d="M12.1111 107.556V102H23.2222V93.389C20.9537 92.8797 18.9287 91.9196 17.1472 90.5084C15.3657 89.0973 14.0574 87.326 13.2222 85.1946C9.75 84.7779 6.84537 83.2621 4.50833 80.6473C2.1713 78.0325 1.00185 74.9649 1 71.4446V68.6668C1 67.139 1.54444 65.8316 2.63333 64.7446C3.72222 63.6575 5.02963 63.1131 6.55555 63.1112H12.1111V57.5557H39.8889V63.1112H45.4444C46.9722 63.1112 48.2806 63.6557 49.3694 64.7446C50.4583 65.8334 51.0018 67.1408 51 68.6668V71.4446C51 74.9631 49.8305 78.0307 47.4917 80.6473C45.1528 83.264 42.2481 84.7797 38.7778 85.1946C37.9444 87.3242 36.637 89.0955 34.8555 90.5084C33.0741 91.9214 31.0481 92.8816 28.7778 93.389V102H39.8889V107.556H12.1111ZM12.1111 79.2223V68.6668H6.55555V71.4446C6.55555 73.2038 7.06481 74.7899 8.08333 76.2029C9.10185 77.6158 10.4444 78.6223 12.1111 79.2223ZM39.8889 79.2223C41.5555 78.6205 42.8981 77.6131 43.9167 76.2001C44.9352 74.7871 45.4444 73.202 45.4444 71.4446V68.6668H39.8889V79.2223Z" fill="#FF31FF" stroke="#1E1E1E"/>
</svg>
