<svg width="586" height="273" viewBox="0 0 586 273" fill="none" xmlns="http://www.w3.org/2000/svg">
<path d="M187.854 198.72H161.161V245.566H96.4449V198.72H0V150.866L100.726 3.52588H161.161V149.858H187.854V198.72ZM96.4449 149.858V121.65C96.4449 116.36 96.6968 109.308 96.9486 100.241C97.4522 91.1741 97.704 86.6406 97.9558 86.1369H96.1931C92.4159 94.7002 88.1351 102.508 83.3506 110.064L56.6583 149.858H96.4449Z" fill="white"/>
<path d="M379.736 124.924C379.736 167.741 372.433 199.223 358.332 219.121C343.978 239.018 322.07 249.092 292.356 249.092C263.398 249.092 241.741 238.766 226.884 217.861C212.279 196.957 204.977 165.978 204.977 124.924C204.977 81.8554 212.027 50.3726 226.633 30.2235C240.986 10.0745 262.894 0 292.608 0C321.315 0 343.223 10.5782 357.828 31.4829C372.433 52.3875 379.736 83.3666 379.736 124.924ZM269.945 124.924C269.945 152.377 271.707 171.267 274.981 181.341C278.506 191.668 284.046 196.705 292.104 196.705C300.162 196.705 305.954 191.416 309.48 180.838C312.753 170.259 314.516 151.621 314.516 124.924C314.516 97.9746 312.753 79.3368 309.48 68.5067C305.954 57.6766 300.414 52.3875 292.356 52.3875C284.298 52.3875 278.506 57.6766 275.233 68.003C271.707 78.3293 269.945 97.219 269.945 124.924Z" fill="white"/>
<path d="M585.216 198.72H558.524V245.566H493.808V198.72H397.363V150.866L498.089 3.52588H558.524V149.858H585.216V198.72ZM494.06 149.858V121.65C494.06 116.36 494.311 109.308 494.563 100.241C495.067 91.1741 495.319 86.6406 495.57 86.1369H493.808C490.031 94.7002 485.75 102.508 480.965 110.064L454.021 150.11H494.06V149.858Z" fill="white"/>
<path d="M364.496 190.68C357.036 190.684 345.54 195.447 345.75 202.903C345.964 210.491 365.497 214.246 365.497 214.246C365.497 214.246 355.649 219.553 356.202 224.013C357.237 232.359 373.402 230.163 377.533 237.488C380.677 243.063 380.284 254.434 377.909 256.684C383.778 253.674 388.757 242.458 386.787 234.853C385.191 228.695 372.782 229.193 371.918 222.891C370.877 215.302 386.706 211.724 385.283 204.197C383.749 196.075 372.761 190.674 364.496 190.68ZM309.169 200.245C308.508 200.261 308.245 200.413 308.102 200.556C307.96 200.699 307.808 200.961 307.791 201.622C308.15 205.855 311.289 210.811 313.173 213.74L315.98 202.512C313.779 201.541 311.6 200.212 309.169 200.245ZM318.748 204.051L315.476 217.136C317.537 220.049 320.036 223.294 322.965 226.837L327.551 210.021C324.583 207.821 321.727 205.82 318.748 204.051H318.748ZM330.175 212.027L325.358 229.688C326.11 230.568 326.896 231.471 327.699 232.386L329.701 230.383C329.486 229.919 329.297 229.444 329.134 228.96C328.34 226.577 328.324 224.07 329.97 222.424C332.646 220.561 335.475 221.031 337.93 222.154L339.932 220.152C336.43 217.076 333.17 214.367 330.175 212.027ZM342.586 221.823L340.669 223.741C341.693 224.457 342.702 225.303 343.667 226.269C344.633 227.234 345.48 228.244 346.196 229.268L348.113 227.35L342.586 221.823ZM332.133 224.587C331.656 225.064 331.439 226.201 332.036 227.993C332.634 229.785 334 231.981 335.978 233.959C337.955 235.936 340.152 237.303 341.944 237.901C343.736 238.498 344.873 238.281 345.35 237.803C345.827 237.326 346.045 236.19 345.447 234.397C344.85 232.605 343.482 230.409 341.505 228.432C339.528 226.454 337.331 225.087 335.539 224.49C334.514 224.203 332.97 223.784 332.133 224.587ZM350.201 229.588L347.782 232.007C347.997 232.471 348.186 232.946 348.348 233.43C349.143 235.813 349.159 238.32 347.513 239.966C345.866 241.613 343.359 241.596 340.976 240.802C340.492 240.639 340.017 240.45 339.553 240.236L337.134 242.655C340.304 245.961 342.689 248.359 345.763 251.433L352.354 231.66C351.639 230.967 350.921 230.276 350.201 229.588ZM331.287 233.122L329.37 235.04L334.897 240.567L336.814 238.649C335.79 237.933 334.781 237.087 333.815 236.121C332.849 235.156 332.003 234.147 331.287 233.122V233.122ZM354.785 234.04L348.181 253.852L357.298 262.968L363.906 243.143C360.913 240.16 357.653 236.87 354.785 234.04ZM366.324 245.561L361.465 260.137L371.183 250.419L366.324 245.561ZM371.918 253.75L361.518 264.151L363.68 266.314L374.081 255.913L371.918 253.75ZM373.925 259.433L367.2 266.158L369.363 268.32L376.088 261.596L373.925 259.433Z" fill="#231F20"/>
<g clip-path="url(#clip0_723_971)">
<path d="M356.656 131.245C376.411 131.245 392.426 115.208 392.426 95.4251C392.426 75.6422 376.411 59.605 356.656 59.605C336.901 59.605 320.886 75.6422 320.886 95.4251C320.886 115.208 336.901 131.245 356.656 131.245Z" fill="white"/>
<path d="M238.972 131.245C258.727 131.245 274.741 115.208 274.741 95.4251C274.741 75.6422 258.727 59.605 238.972 59.605C219.216 59.605 203.202 75.6422 203.202 95.4251C203.202 115.208 219.216 131.245 238.972 131.245Z" fill="white"/>
<path d="M260.003 66.5151C263.664 72.1561 265.777 78.8312 265.777 86.0705C265.777 105.861 249.769 121.891 230.007 121.891C222.121 121.891 214.845 119.305 208.93 114.98C215.314 124.805 226.345 131.245 238.926 131.245C258.688 131.245 274.696 115.215 274.696 95.425C274.696 83.579 268.922 73.0492 260.003 66.5151Z" fill="#EFEFEF"/>
<path d="M377.685 66.5151C381.347 72.1561 383.459 78.8312 383.459 86.0705C383.459 105.861 367.452 121.891 347.689 121.891C339.803 121.891 332.527 119.305 326.612 114.98C332.996 124.805 344.028 131.245 356.608 131.245C376.371 131.245 392.378 115.215 392.378 95.425C392.378 83.579 386.557 73.0492 377.685 66.5151Z" fill="#EFEFEF"/>
<path d="M238.972 132.938C218.364 132.938 201.559 116.109 201.559 95.4722C201.559 74.8357 218.364 58.0068 238.972 58.0068C259.579 58.0068 276.385 74.8357 276.385 95.4722C276.385 116.109 259.579 132.938 238.972 132.938ZM238.972 61.2504C220.148 61.2504 204.845 76.575 204.845 95.4252C204.845 114.275 220.148 129.6 238.972 129.6C257.796 129.6 273.099 114.275 273.099 95.4252C273.099 76.622 257.796 61.2504 238.972 61.2504Z" fill="#231F20"/>
<path d="M226.251 101.207C235.818 101.207 243.573 93.441 243.573 83.8611C243.573 74.2812 235.818 66.5151 226.251 66.5151C216.685 66.5151 208.93 74.2812 208.93 83.8611C208.93 93.441 216.685 101.207 226.251 101.207Z" fill="#231F20"/>
<path d="M222.027 87.8097C225.941 87.8097 229.115 84.6317 229.115 80.7115C229.115 76.7913 225.941 73.6133 222.027 73.6133C218.112 73.6133 214.938 76.7913 214.938 80.7115C214.938 84.6317 218.112 87.8097 222.027 87.8097Z" fill="white"/>
<path d="M356.656 132.938C336.049 132.938 319.243 116.109 319.243 95.4722C319.243 74.8357 336.049 58.0068 356.656 58.0068C377.264 58.0068 394.069 74.8357 394.069 95.4722C394.069 116.109 377.264 132.938 356.656 132.938ZM356.656 61.2504C337.832 61.2504 322.529 76.575 322.529 95.4252C322.529 114.275 337.832 129.6 356.656 129.6C375.48 129.6 390.783 114.275 390.783 95.4252C390.783 76.622 375.48 61.2504 356.656 61.2504Z" fill="#231F20"/>
<path d="M367.359 125.04C376.926 125.04 384.681 117.274 384.681 107.694C384.681 98.1142 376.926 90.3481 367.359 90.3481C357.793 90.3481 350.038 98.1142 350.038 107.694C350.038 117.274 357.793 125.04 367.359 125.04Z" fill="#231F20"/>
<path d="M363.134 111.643C367.049 111.643 370.223 108.465 370.223 104.544C370.223 100.624 367.049 97.4463 363.134 97.4463C359.22 97.4463 356.046 100.624 356.046 104.544C356.046 108.465 359.22 111.643 363.134 111.643Z" fill="white"/>
<path d="M193.204 46.7251C199.259 53.6822 204.704 41.0841 223.434 37.1354C239.066 33.8449 248.83 41.6952 251.553 35.7722C254.275 29.8492 241.789 21.5758 218.787 25.2424C201.653 27.9219 186.162 38.6397 193.204 46.7251Z" fill="#231F20"/>
<path d="M401.955 47.853C395.524 54.4812 390.783 41.601 372.288 36.6181C356.844 32.4814 346.657 39.7677 344.263 33.7036C341.869 27.6396 354.778 20.0713 377.545 24.9601C394.538 28.6268 409.419 40.1437 401.955 47.853Z" fill="#231F20"/>
<path d="M292.533 211.394C281.079 211.394 272.394 201.334 263.898 191.51C256.199 182.578 248.219 173.317 238.784 172.894C217.519 171.907 194.471 201.804 194.236 202.086C193.062 203.638 190.856 203.92 189.307 202.744C187.758 201.569 187.476 199.36 188.65 197.809C189.682 196.492 213.294 165.843 237.751 165.843C238.221 165.843 238.643 165.843 239.112 165.89C251.552 166.501 260.518 176.89 269.202 186.95C278.403 197.621 286.383 206.834 296.663 203.732C306.427 200.77 315.112 191.416 323.561 182.39C334.123 171.061 345.014 159.356 358.439 160.813C371.301 162.224 381.863 170.074 389.045 183.518C394.303 193.39 395.852 202.791 395.899 203.168C396.227 205.095 394.913 206.881 392.988 207.21C391.064 207.539 389.28 206.223 388.951 204.296C388.905 203.967 383.131 170.544 357.688 167.818C347.783 166.736 338.536 176.702 328.725 187.185C319.665 196.868 310.324 206.928 298.729 210.454C296.57 211.065 294.504 211.394 292.533 211.394Z" fill="#231F20"/>
<path d="M179.121 191.415C176.445 198.091 177.572 206.082 181.656 211.958C182.83 213.65 184.191 215.155 185.834 216.424C186.35 216.847 187.054 216.941 187.524 216.424C187.946 216.001 188.04 215.108 187.524 214.731C182.313 210.642 179.637 203.967 180.154 197.386C180.295 195.552 180.764 193.766 181.421 192.027C181.656 191.416 181.14 190.71 180.576 190.522C179.919 190.381 179.356 190.804 179.121 191.415Z" fill="#231F20"/>
<path d="M391.769 217.787C396.041 218.492 399.937 215.766 402.613 212.663C405.148 209.702 406.979 206.035 407.73 202.227C408.152 200.018 408.293 197.762 408.058 195.552C408.011 194.894 407.542 194.33 406.838 194.33C406.228 194.33 405.57 194.894 405.617 195.552C406.322 202.274 403.552 209.749 397.966 213.744C396.37 214.873 394.398 215.813 392.38 215.484C391.723 215.39 391.065 215.672 390.878 216.33C390.784 216.894 391.112 217.693 391.769 217.787Z" fill="#231F20"/>
</g>
<defs>
<clipPath id="clip0_723_971">
<rect width="230.485" height="194.472" fill="white" transform="translate(177.667 23.4087)"/>
</clipPath>
</defs>
</svg>
