<svg width="48" height="48" viewBox="0 0 48 48" fill="none" xmlns="http://www.w3.org/2000/svg">
<g id="Icon - Cannabis" clip-path="url(#clip0_738_563)">
<path id="Vector" d="M45.217 26.5778C45.0298 26.1386 44.5987 25.8539 44.1216 25.8539H37.3325C36.6749 25.8539 36.1421 26.3867 36.1421 27.0443C36.1421 27.7019 36.6749 28.2347 37.3325 28.2347H41.0093C35.3794 32.5398 28.885 32.6502 25.9277 32.4242C26.9837 30.5157 28.5336 27.0693 29.1437 22.4598C32.281 19.625 35.8421 16.6029 38.0031 14.9987C35.9991 22.9941 30.0312 28.2218 29.9467 28.2947C29.448 28.7229 29.3904 29.4741 29.8181 29.9728C30.0538 30.2474 30.3869 30.3885 30.7224 30.3885C30.9965 30.3885 31.272 30.2944 31.4967 30.1019C31.8221 29.823 39.4834 23.151 40.8346 12.8387C40.8787 12.4989 40.7751 12.1562 40.549 11.8989C40.3229 11.6416 39.997 11.4938 39.6543 11.4938C39.1013 11.4938 38.2651 11.4938 32.4744 16.3883C31.3685 17.3229 30.2919 18.2598 29.3981 19.047C29.485 14.2427 28.4539 8.49809 25.1232 2.12081C24.9163 1.72481 24.5199 1.48193 24.0586 1.48145C23.6122 1.48481 23.2047 1.73777 23.004 2.13713C20.0952 7.91969 18.6898 13.6979 18.7891 19.3979C16.8058 16.8165 13.7035 13.984 8.8445 11.6147C8.44226 11.4189 7.96514 11.4645 7.60802 11.7328C7.2509 12.0011 7.07378 12.447 7.14962 12.8877C9.0413 23.8317 15.5079 29.7251 19.7256 32.4846C16.3699 32.4098 11.4144 31.6178 6.99074 28.2352H10.6675C11.3251 28.2352 11.8579 27.7024 11.8579 27.0448C11.8579 26.3872 11.3251 25.8544 10.6675 25.8544H3.87842C3.4013 25.8544 2.97026 26.1395 2.78306 26.5782C2.59634 27.017 2.68946 27.5253 3.02018 27.8694C8.7437 33.8262 15.8059 34.8986 20.1509 34.8986C20.6208 34.8986 21.0571 34.8856 21.4584 34.8654C19.7563 36.9251 16.5063 39.8474 11.581 40.1886C12.7027 39.2037 14.052 38.3051 15.1978 37.6955C15.7786 37.3869 15.9989 36.6659 15.6898 36.0856C15.3811 35.5048 14.6597 35.2845 14.0799 35.5936C12.1493 36.6203 9.38546 38.5595 7.94978 40.6461C7.7117 40.9917 7.67378 41.4371 7.8485 41.8182C8.0237 42.1994 8.38658 42.4605 8.8037 42.5047C9.42146 42.5709 10.0195 42.6021 10.6013 42.6021C16.4405 42.6021 20.4605 39.4614 22.7347 36.9659V45.329C22.7347 45.9866 23.2675 46.5194 23.9251 46.5194C24.5827 46.5194 25.1155 45.9866 25.1155 45.329V36.9664C27.3898 39.4619 31.4093 42.6021 37.249 42.6021C37.8303 42.6021 38.4293 42.5709 39.0466 42.5047C39.4637 42.4605 39.8266 42.1994 40.0018 41.8182C40.177 41.4371 40.1386 40.9917 39.9005 40.6461C38.4648 38.56 35.701 36.6203 33.7704 35.5936C33.1896 35.284 32.4687 35.5053 32.1605 36.0856C31.8514 36.6664 32.0722 37.3874 32.6525 37.696C33.7987 38.3056 35.1475 39.2037 36.2693 40.1891C31.3387 39.8474 28.0858 36.9179 26.3856 34.8578C26.8282 34.8827 27.3168 34.8995 27.8477 34.8995C32.1927 34.8995 39.2554 33.8262 44.9784 27.8704C45.3091 27.5262 45.4023 27.0179 45.2155 26.5792L45.217 26.5778ZM10.0287 14.9478C16.4765 18.7389 18.7335 23.2691 19.5039 25.6096C19.6282 26.1923 19.765 26.7746 19.9219 27.3554C19.9243 27.364 19.9287 27.3717 19.9315 27.3803C19.9435 27.4211 19.9603 27.4595 19.9767 27.4984C19.9911 27.5339 20.0045 27.5694 20.0218 27.6026C20.0381 27.6333 20.0583 27.6611 20.077 27.6899C20.101 27.7274 20.1245 27.7648 20.1528 27.7989C20.1701 27.8195 20.1898 27.8378 20.2085 27.8574C20.2431 27.8939 20.2776 27.9304 20.316 27.9621C20.3343 27.977 20.3544 27.989 20.3736 28.0029C20.4159 28.0336 20.4586 28.0638 20.5047 28.0893C20.5263 28.1013 20.5498 28.1094 20.5723 28.12C20.6189 28.1416 20.665 28.1627 20.7139 28.1781C20.7403 28.1867 20.7682 28.191 20.7955 28.1973C20.8431 28.2088 20.8901 28.2198 20.9391 28.2256C20.9703 28.229 21.0024 28.228 21.0346 28.229C21.0807 28.2304 21.1263 28.2323 21.1728 28.228C21.1819 28.227 21.1901 28.229 21.1992 28.228C21.2314 28.2246 21.2607 28.2146 21.2919 28.2083C21.3221 28.2026 21.3523 28.2016 21.3826 28.1934C21.3912 28.191 21.3984 28.1867 21.4066 28.1843C21.4498 28.1718 21.4901 28.1541 21.5309 28.1368C21.5635 28.1234 21.5967 28.1114 21.6274 28.095C21.6634 28.0758 21.696 28.0528 21.7296 28.0302C21.7608 28.0096 21.793 27.9899 21.8218 27.9664C21.8511 27.9424 21.8765 27.915 21.9034 27.8886C21.9312 27.8613 21.9595 27.8354 21.9845 27.8056C22.009 27.7763 22.0287 27.7442 22.0503 27.713C22.0719 27.6818 22.0944 27.6515 22.1127 27.6184C22.1314 27.5843 22.1453 27.5478 22.1607 27.5123C22.1755 27.4782 22.1914 27.4446 22.2029 27.4091C22.2144 27.3731 22.2211 27.3352 22.2293 27.2978C22.2379 27.2594 22.2475 27.2214 22.2519 27.1816C22.2562 27.1456 22.2552 27.1086 22.2557 27.0722C22.2567 27.0294 22.2586 26.9872 22.2547 26.944C22.2538 26.9349 22.2557 26.9262 22.2547 26.9166C22.2442 26.8182 22.1597 26.1381 21.8285 25.0845C20.4658 18.663 21.2199 12.0731 24.0874 5.44049C26.9357 11.8163 27.7008 18.173 26.3602 24.3678C25.5691 28.023 24.2151 30.6467 23.4797 31.8856C20.8344 30.5757 12.8655 25.8189 10.0291 14.9474L10.0287 14.9478Z" fill="#7600AB"/>
</g>
<defs>
<clipPath id="clip0_738_563">
<rect width="48" height="48" fill="white"/>
</clipPath>
</defs>
</svg>
