<svg width="19" height="18" viewBox="0 0 19 18" fill="none" xmlns="http://www.w3.org/2000/svg">
<path d="M12.8084 6.71874C12.4106 6.71874 12.0879 6.39606 12.0879 5.99823C12.0879 5.6004 12.4106 5.27771 12.8084 5.27771C13.2062 5.27771 13.5289 5.6004 13.5289 5.99823C13.5289 6.39606 13.2062 6.71874 12.8084 6.71874Z" fill="white"/>
<path d="M12.8084 6.71874C12.4106 6.71874 12.0879 6.39606 12.0879 5.99823C12.0879 5.6004 12.4106 5.27771 12.8084 5.27771C13.2062 5.27771 13.5289 5.6004 13.5289 5.99823C13.5289 6.39606 13.2062 6.71874 12.8084 6.71874Z" fill="white"/>
<path d="M12.8084 6.71874C12.4106 6.71874 12.0879 6.39606 12.0879 5.99823C12.0879 5.6004 12.4106 5.27771 12.8084 5.27771C13.2062 5.27771 13.5289 5.6004 13.5289 5.99823C13.5289 6.39606 13.2062 6.71874 12.8084 6.71874Z" fill="white"/>
<path d="M12.8084 6.71874C12.4106 6.71874 12.0879 6.39606 12.0879 5.99823C12.0879 5.6004 12.4106 5.27771 12.8084 5.27771C13.2062 5.27771 13.5289 5.6004 13.5289 5.99823C13.5289 6.39606 13.2062 6.71874 12.8084 6.71874Z" fill="white"/>
<path d="M15.5776 12.063V6.20381C15.5776 4.55945 14.2404 3.22229 12.5961 3.22229H6.7369C5.09253 3.22229 3.75537 4.55945 3.75537 6.20381V12.063C3.75537 13.7074 5.09253 15.0445 6.7369 15.0445H12.5961C14.2404 15.0445 15.5776 13.7074 15.5776 12.063ZM14.2913 12.063C14.2913 12.9979 13.531 13.7582 12.5961 13.7582H6.7369C5.80199 13.7582 5.04169 12.9979 5.04169 12.063V6.20381C5.04169 5.26891 5.80199 4.50861 6.7369 4.50861H12.5961C13.531 4.50861 14.2913 5.26891 14.2913 6.20381V12.063Z" fill="white"/>
<path d="M9.66525 6.08887C7.98552 6.08887 6.61963 7.45475 6.61963 9.13449C6.61963 10.8142 7.98552 12.1801 9.66525 12.1801C11.345 12.1801 12.7109 10.8142 12.7109 9.13449C12.7109 7.45475 11.345 6.08887 9.66525 6.08887ZM9.66525 10.8938C8.69498 10.8938 7.90595 10.1048 7.90595 9.13449C7.90595 8.16422 8.69498 7.3774 9.66525 7.3774C10.6355 7.3774 11.4245 8.16643 11.4245 9.13449C11.4245 10.1048 10.6355 10.8938 9.66525 10.8938Z" fill="white"/>
</svg>
