<svg width="608" height="608" viewBox="0 0 608 608" fill="none" xmlns="http://www.w3.org/2000/svg">
<g clip-path="url(#clip0_477_393)">
<path fill-rule="evenodd" clip-rule="evenodd" d="M185.156 488.01C168.578 471.409 146.565 461.349 123.164 459.678C150.938 458.848 176.434 444.123 191.032 420.483L183.138 424.207L190.814 420.052C163.12 417.811 136.154 429.631 119.034 451.517C131.551 431.672 136.484 407.981 132.929 384.791C116.404 400.833 106.268 422.334 104.409 445.289C99.4514 429.447 90.374 415.207 78.1015 404.026C77.8443 421.756 83.7642 439.025 94.8468 452.87C84.8578 446.845 73.0809 444.495 61.5444 446.22C70.3207 456.734 82.2858 463.996 95.5264 466.976C77.5098 471.729 71.1466 485.515 76.437 508.333L80.431 507.16C73.6538 486.862 79.1931 474.1 97.0425 468.873C91.3798 481.454 90.052 495.628 93.3768 509.134C101.601 500.862 106.68 489.982 107.745 478.366C112.334 495.494 122.742 510.493 137.178 520.788C135.439 504.279 129.345 488.529 119.515 475.15C139.113 487.251 162.439 491.82 185.154 488.008L185.156 488.01Z" fill="#362151"/>
<path fill-rule="evenodd" clip-rule="evenodd" d="M70.5904 291.301L78.1517 286.943L70.8413 291.711C98.6275 291.679 124.536 277.69 139.807 254.479C128.956 275.279 125.979 299.299 131.42 322.119C146.578 304.778 154.919 282.521 154.894 259.49C161.132 274.874 171.345 288.323 184.491 298.461C183.297 280.768 175.983 264.042 163.806 251.15C174.255 256.336 186.183 257.716 197.539 255.054C187.933 245.293 175.414 239.037 161.972 237.149C179.539 230.938 184.755 216.677 177.614 194.369L173.728 195.864C182.145 215.539 177.67 228.713 160.304 235.384C164.919 222.381 165.084 208.147 160.663 194.957C153.144 203.875 148.972 215.136 148.861 226.8C142.885 210.105 131.286 196.007 116.052 186.927C119.137 203.24 126.501 218.438 137.39 230.967C116.868 220.51 93.2472 217.865 70.9208 223.523C88.8016 238.713 111.563 246.937 135.023 246.686C107.41 249.785 83.2038 266.549 70.5883 291.303L70.5904 291.301Z" fill="#362151"/>
<path fill-rule="evenodd" clip-rule="evenodd" d="M250.439 534.785C241.527 534.428 232.684 536.443 224.807 540.63C232.761 531.153 237.002 519.108 236.739 506.74C226.626 514.261 219.571 525.181 216.865 537.491C218.582 522.665 212.735 507.967 201.303 498.371L202.669 502.857L201.057 498.453C197.715 512.998 201.903 528.253 212.206 539.051C202.631 530.858 190.419 526.394 177.816 526.484C185.06 536.515 195.701 543.57 207.76 546.34C198.955 547.746 190.681 551.466 183.784 557.12C193.19 558.634 202.828 556.827 211.048 552.014C207.07 556.854 204.904 562.931 204.927 569.198C211.196 565.35 215.987 559.554 218.599 552.748C219.726 562.693 226.559 567.147 239.099 566.107L238.788 563.893C227.471 565.919 221.118 561.984 219.726 552.089C225.974 556.077 233.403 557.883 240.841 557.166C237.084 552.152 231.693 548.607 225.602 547.139C235.062 546.029 243.844 541.663 250.437 534.787L250.439 534.785Z" fill="#362151"/>
<path fill-rule="evenodd" clip-rule="evenodd" d="M78.3399 112.025C86.3738 117.144 95.9362 119.31 105.392 118.15C99.8215 121.017 95.4239 125.736 92.9586 131.497C100.24 130.451 106.935 127.028 112.033 121.817C109.125 131.395 113.631 138.193 125.554 142.212L126.144 140.056C114.952 137.429 110.682 131.296 113.328 121.661C117.481 127.798 123.584 132.405 130.698 134.694C129.237 128.601 125.694 123.208 120.686 119.446C129.81 122.179 139.604 121.654 148.382 117.957C140.344 114.095 131.426 112.439 122.537 113.158C133.596 107.613 142.266 98.2385 146.931 86.7794C134.665 89.6756 123.856 96.9002 116.491 107.128C123.946 94.1965 124.408 78.388 117.719 65.0448L117.194 69.7037L117.46 65.0239C108.623 77.0518 106.419 92.716 111.594 106.716C106.053 95.3967 96.6138 86.4553 85.0083 81.5392C87.6807 93.6193 94.6502 104.319 104.62 111.644C95.9802 109.44 86.9091 109.574 78.3357 112.031L78.3399 112.025Z" fill="#362151"/>
<path fill-rule="evenodd" clip-rule="evenodd" d="M276.983 176.892C277.307 188.552 281.688 199.733 289.371 208.511C293.482 195.448 293.131 181.457 288.49 168.701C302.218 181.298 317.257 179.209 333.605 162.436L330.462 159.708C317.038 176.373 303.306 178.605 289.266 166.401C302.913 164.373 315.559 157.838 325.132 147.745C313.73 145.29 301.827 146.889 291.477 152.268C303.414 139.154 310.417 122.296 311.285 104.585C298.331 114.963 288.365 128.599 282.412 144.096C282.014 121.067 273.263 98.9683 257.789 81.9072C252.769 104.825 256.19 128.785 267.421 149.382C251.725 126.455 225.562 112.947 197.782 113.426L197.537 113.842C210.606 138.362 235.118 154.674 262.781 157.265C239.321 157.447 216.714 166.09 199.118 181.605C221.545 186.85 245.113 183.772 265.439 172.938C254.782 185.664 247.7 200.996 244.917 217.361C259.979 208.003 271.317 193.694 276.983 176.892Z" fill="#362151"/>
<path fill-rule="evenodd" clip-rule="evenodd" d="M278.445 598.444C276.201 601.44 274.277 604.644 272.686 608H279.386C279.409 604.811 279.097 601.608 278.443 598.444H278.445Z" fill="#362151"/>
<path fill-rule="evenodd" clip-rule="evenodd" d="M343.745 423.521C360.298 407.508 370.469 386.024 372.368 363.071C352.195 375.05 337.026 393.91 329.647 416.18C335.682 389.058 327.686 360.72 308.368 340.75L310.033 349.318L307.896 340.855C298.906 367.144 303.724 396.191 320.72 418.172C304.569 401.155 282.817 390.541 259.466 388.278C270.946 408.244 289.291 423.36 311.082 430.813C294.507 431.718 278.47 437.011 264.613 446.153C281.734 450.768 299.929 449.281 316.074 441.95C307.776 450.149 302.597 460.983 301.43 472.588C313.78 466.673 323.765 456.863 329.915 444.762C330.086 463.394 341.88 472.954 365.298 473.446L365.145 469.284C343.801 470.857 332.796 462.346 332.125 443.757C342.925 452.343 356.333 457.119 370.245 457.223C364.252 447.215 354.957 439.612 343.96 435.723C361.691 435.491 378.791 429.096 392.325 417.637C375.895 415.26 359.129 417.29 343.745 423.521Z" fill="#362151"/>
<path fill-rule="evenodd" clip-rule="evenodd" d="M259.801 22.8701C247.311 11.9714 230.183 8.07781 214.207 12.5025L219.171 14.0729L214.128 12.7785C225.338 24.9883 241.933 30.7492 258.298 28.1145C244.775 31.7236 233.008 40.0921 225.162 51.6808C238.899 51.3609 252.051 46.0621 262.172 36.7694C257.919 45.7129 256.117 55.6246 256.955 65.4924C264.257 57.837 268.667 47.8814 269.432 37.3298C271.363 44.0171 275.561 49.8198 281.308 53.7426C281.73 45.5833 279.438 37.5536 274.855 30.8809C284.666 36.1065 293.041 32.6542 299.977 20.5239L297.754 19.4177C292.491 31.0482 284.89 34.3877 274.959 29.436C282.539 26.2262 288.867 20.5636 292.89 13.3055C285.937 13.5899 279.302 16.2915 274.127 20.9442C277.552 14.4451 279.336 7.25602 279.386 0H272.686C270.07 5.52043 268.368 11.457 267.668 17.5775C265.909 11.2291 263.071 5.2925 259.331 0H246.615C249.178 8.47093 253.662 16.3104 259.799 22.8701H259.801Z" fill="#362151"/>
<path fill-rule="evenodd" clip-rule="evenodd" d="M297.221 249.904L302.149 253.262L297.041 250.182C305.322 267.268 321.63 279.056 340.454 281.55C324.43 281.057 308.763 286.364 296.338 296.497C311.515 300.669 327.69 299.186 341.855 292.323C334.241 300.736 329.003 311.018 326.671 322.119C337.204 316.124 345.322 306.651 349.636 295.328C349.55 303.299 352.247 311.051 357.262 317.247C360.411 308.435 360.54 298.871 357.707 290.038C366.751 299.002 377.075 297.971 388.68 286.945L386.606 284.998C376.999 296.027 367.564 297.189 358.299 288.486C367.671 287.462 376.479 283.33 383.281 276.691C375.559 274.715 367.389 275.495 360.179 278.895C368.675 270.254 373.902 258.927 374.961 246.855C365.839 253.601 358.677 262.651 354.205 273.075C354.539 257.34 349.146 242.019 339.028 229.961C334.996 245.479 336.702 261.93 343.829 276.291C333.714 260.221 316.203 250.308 297.219 249.906L297.221 249.904Z" fill="#362151"/>
<path fill-rule="evenodd" clip-rule="evenodd" d="M571.222 527.734L575.58 535.296L570.812 527.985C570.844 555.753 584.816 581.646 608.002 596.922V565.171C600.24 549.249 587.449 536 571.224 527.732L571.222 527.734Z" fill="#362151"/>
<path fill-rule="evenodd" clip-rule="evenodd" d="M524.012 290.034L519.167 282.774L524.407 289.754C522.544 262.032 506.878 237.1 482.709 223.391C504.18 232.847 528.343 234.238 550.757 227.302C532.454 213.321 509.695 206.464 486.716 208.007C501.654 200.77 514.404 189.692 523.652 175.907C506.077 178.266 489.869 186.666 477.81 199.664C482.295 188.897 482.887 176.903 479.481 165.747C470.374 175.974 464.954 188.88 463.957 202.416C456.602 185.296 442.03 181.035 420.241 189.627L421.987 193.405C441.066 183.711 454.505 187.308 462.305 204.195C449.026 200.448 434.813 201.222 421.943 206.5C431.336 213.415 442.847 216.838 454.492 216.177C438.228 223.241 424.927 235.743 416.87 251.541C432.942 247.388 447.623 239.039 459.406 227.348C450.325 248.513 449.242 272.258 456.36 294.164C470.338 275.321 477.045 252.066 475.248 228.673C480.16 256.02 498.482 279.07 524.014 290.027L524.012 290.034Z" fill="#362151"/>
<path fill-rule="evenodd" clip-rule="evenodd" d="M537.263 478.487C553.663 471.74 567.203 459.498 575.565 443.859C573.964 455.412 576.439 467.164 582.568 477.089C588.777 464.883 590.738 451.023 588.264 437.678C593.935 444.943 600.514 448.715 608.002 448.999V446.331C601.321 446.061 595.123 442.465 589.41 435.537C595.73 435.652 601.997 434.795 608.002 433.032V419.538C603.251 419.668 598.509 420.473 593.921 421.962C599.274 417.75 603.998 412.87 608.002 407.479V387.231C599.368 394.238 592.016 402.751 586.328 412.405C589.732 389.627 584.745 366.387 572.295 347.009C563.565 368.786 562.988 392.979 570.668 415.149C558.969 389.947 535.39 372.311 507.911 368.202L514.443 373.99L507.601 368.57C516.449 394.909 537.934 415.04 564.792 422.158C541.623 418.47 517.902 423.266 497.987 435.667C519.242 444.539 542.997 445.386 564.83 438.055C552.221 448.851 542.706 462.804 537.263 478.487Z" fill="#362151"/>
<path fill-rule="evenodd" clip-rule="evenodd" d="M404.762 133.116C422.342 130.784 438.56 122.407 450.638 109.424C446.136 120.184 445.528 132.179 448.92 143.339C458.041 133.122 463.478 120.226 464.496 106.691C471.827 123.821 486.394 128.103 508.195 119.542L506.453 115.762C487.36 125.429 473.927 121.811 466.152 104.913C479.424 108.679 493.639 107.926 506.518 102.667C497.133 95.7376 485.628 92.2999 473.981 92.9418C490.256 85.9012 503.576 73.4175 511.654 57.632C495.576 61.7598 480.884 70.0885 469.082 81.7651C478.195 60.6118 479.311 36.8698 472.225 14.9532C458.221 33.775 451.479 57.0214 453.244 80.4142C448.37 53.0588 430.081 29.9839 404.564 18.9911L409.4 26.2576L404.171 19.2692C405.994 46.9926 421.623 71.9475 445.773 85.69C424.314 76.2028 400.154 74.7809 377.731 81.6814C396.013 95.6895 418.762 102.58 441.745 101.068C426.796 108.284 414.032 119.344 404.762 133.113V133.116Z" fill="#362151"/>
<path fill-rule="evenodd" clip-rule="evenodd" d="M67.5981 573.198C51.2856 576.283 36.0877 583.647 23.558 594.536C34.0155 574.014 36.6607 550.393 31.0022 528.067C15.8127 545.947 7.5885 568.709 7.83943 592.168C6.77089 582.654 4.07968 573.543 0 565.173V596.924C0.0146375 596.932 0.0271839 596.942 0.0418214 596.953C0.0271839 596.944 0.0125464 596.938 0 596.932V608.002H41.2485C36.8823 606.733 32.3363 606.051 27.7255 606.009C44.4206 600.033 58.5186 588.434 67.5981 573.2V573.198Z" fill="#362151"/>
<path fill-rule="evenodd" clip-rule="evenodd" d="M244.16 593.335C244.346 598.345 245.182 603.27 246.615 608H259.331C255.268 602.252 250.14 597.262 244.16 593.335Z" fill="#362151"/>
<path fill-rule="evenodd" clip-rule="evenodd" d="M47.2269 250.722L45.6711 249.116C37.7208 257.419 30.2683 257.98 23.3134 250.803C30.7116 250.345 37.7794 247.428 43.3667 242.468C37.3758 240.63 30.9332 240.939 25.1451 243.342C32.1377 236.872 36.6628 228.171 37.9404 218.732C30.5296 223.692 24.5701 230.532 20.6702 238.551C21.515 226.208 17.8494 213.977 10.3508 204.135C6.60988 216.169 7.33757 229.15 12.4021 240.691C9.25717 235.128 5.00393 230.405 0 226.737V241.824C3.03624 243.123 6.23767 244.097 9.55829 244.697C6.35477 244.446 3.15543 244.494 0 244.827V256.361C3.49836 255.677 6.93818 254.626 10.2588 253.206C5.94701 257.543 2.47792 262.609 0 268.151V274.493C7.18492 270.112 12.8747 263.615 16.256 255.855C15.8921 262.112 17.7239 268.297 21.4314 273.349C24.2313 266.545 24.6893 259.04 22.7906 252.001C29.5594 259.374 37.7041 258.948 47.2248 250.722H47.2269Z" fill="#362151"/>
<path fill-rule="evenodd" clip-rule="evenodd" d="M25.7934 438.937L23.1419 435.727C14.8738 443.086 7.15983 446.617 0 446.331V448.999C7.64914 449.288 16.2476 445.936 25.7934 438.937Z" fill="#362151"/>
<path fill-rule="evenodd" clip-rule="evenodd" d="M0 407.479C6.42168 398.834 10.9928 388.868 13.318 378.198C8.60894 380.83 4.15705 383.856 0 387.231V407.479Z" fill="#362151"/>
<path fill-rule="evenodd" clip-rule="evenodd" d="M428.509 546.177C434.679 561.589 444.836 575.08 457.936 585.276C456.82 567.579 449.578 550.822 437.456 537.878C447.88 543.11 459.806 544.54 471.173 541.924C461.608 532.121 449.116 525.81 435.683 523.866C453.277 517.73 458.551 503.492 451.508 481.155L447.617 482.634C455.95 502.344 451.416 515.499 434.023 522.094C438.692 509.113 438.918 494.879 434.556 481.67C426.999 490.555 422.777 501.799 422.618 513.46C416.713 496.74 405.174 482.594 389.983 473.448C392.998 489.773 400.296 505.002 411.13 517.578C390.654 507.032 367.044 504.287 344.694 509.847C362.51 525.112 385.236 533.434 408.696 533.286C381.071 536.266 356.791 552.925 344.071 577.625L351.651 573.301L344.32 578.037C372.106 578.125 398.075 564.248 413.445 541.102C402.617 561.643 399.489 585.368 404.606 608H405.381C420.226 590.826 428.438 568.895 428.509 546.177Z" fill="#362151"/>
<path fill-rule="evenodd" clip-rule="evenodd" d="M608 596.93C587.208 586.098 563.207 583.127 540.402 588.564C550.671 597.541 562.666 604.125 575.521 607.998H608V596.928V596.93Z" fill="#362151"/>
<path fill-rule="evenodd" clip-rule="evenodd" d="M0 419.538V433.032C7.10337 430.945 13.8408 427.589 19.861 423.049C13.5 420.527 6.74162 419.352 0 419.538Z" fill="#362151"/>
<path fill-rule="evenodd" clip-rule="evenodd" d="M608 256.363V244.829C598.776 245.801 589.914 249.214 582.366 254.797C590.692 257.515 599.519 258.024 608 256.363Z" fill="#362151"/>
<path fill-rule="evenodd" clip-rule="evenodd" d="M608 241.824V226.737C601.319 221.84 593.3 218.829 584.785 218.243L588.53 221.062L584.634 218.454C589.174 229.075 597.609 237.376 608 241.822V241.824Z" fill="#362151"/>
<path fill-rule="evenodd" clip-rule="evenodd" d="M608 274.493V268.151C606.865 270.689 605.936 273.328 605.234 276.04C606.179 275.559 607.101 275.043 608 274.493Z" fill="#362151"/>
<path fill-rule="evenodd" clip-rule="evenodd" d="M607.467 46.6832C607.647 46.5055 607.822 46.3277 608 46.1479V21.7305C605.735 29.8229 605.526 38.4047 607.467 46.6832Z" fill="#362151"/>
<path fill-rule="evenodd" clip-rule="evenodd" d="M603.032 4.03786C587.648 10.2755 574.198 20.4883 564.06 33.6349C580.249 32.5413 595.627 26.3224 608 15.9465V0H575.521C584.375 2.66821 593.639 4.04831 603.032 4.03786Z" fill="#362151"/>
<path fill-rule="evenodd" clip-rule="evenodd" d="M0 15.9444C1.15009 14.9804 2.27509 13.983 3.37081 12.9479C1.96561 15.7813 0.842702 18.7214 0 21.7304V46.1479C9.45373 36.6147 15.5199 24.3108 17.3747 11.1161C23.5852 28.6832 37.8463 33.8984 60.1539 26.7574L58.6587 22.8721C38.9838 31.2887 25.8101 26.8138 19.1396 9.44746C32.1419 14.0625 46.3758 14.2277 59.5663 9.80713C54.1755 5.26114 47.9253 1.94051 41.2485 0H0V15.9444Z" fill="#362151"/>
</g>
<defs>
<clipPath id="clip0_477_393">
<rect width="608" height="608" fill="white"/>
</clipPath>
</defs>
</svg>
