<svg width="60" height="60" viewBox="0 0 60 60" fill="none" xmlns="http://www.w3.org/2000/svg">
<circle cx="30" cy="30" r="30" fill="url(#paint0_linear_373_197)"/>
<path d="M34.9532 32.2042C34.9378 32.1969 34.9203 32.1887 34.8999 32.1792C34.8903 32.1748 34.8801 32.1701 34.8694 32.1651C34.8268 32.1455 34.7762 32.1222 34.7223 32.0963C34.6504 32.0618 34.5156 31.9961 34.352 31.9164C33.8981 31.6953 33.2222 31.366 33.05 31.2931C33.0458 31.2917 33.0417 31.2903 33.0377 31.2889C32.8254 31.5842 32.3949 32.0959 32.2589 32.2517C32.1368 32.3978 31.9564 32.5409 31.7002 32.5706C31.4682 32.5975 31.2609 32.5195 31.1017 32.4377C31.0728 32.4241 31.0332 32.4072 30.984 32.3862C30.6461 32.2418 29.8566 31.9045 28.9746 31.1163L34.9532 32.2042ZM34.9532 32.2042C34.9527 32.2316 34.9512 32.2635 34.9482 32.3C34.9342 32.4662 34.8908 32.6934 34.7995 32.9458L34.7994 32.9458L34.7969 32.9531C34.7533 33.0794 34.5759 33.2819 34.2626 33.4833C33.9627 33.6761 33.6604 33.7898 33.5129 33.8117C33.1128 33.8674 32.6534 33.8886 32.1603 33.7298L32.1603 33.7297L32.153 33.7275C31.7993 33.6194 31.3541 33.4742 30.7816 33.2219L30.778 33.2203C28.5232 32.2475 26.9849 30.0089 26.7347 29.6448C26.723 29.6278 26.7142 29.615 26.7082 29.6065L26.704 29.6005L26.6996 29.5947L26.6977 29.5922C26.6392 29.5141 26.4071 29.2047 26.1891 28.7756C25.965 28.3345 25.7782 27.81 25.7782 27.3064C25.7782 26.365 26.2141 25.8854 26.4615 25.6131C26.4818 25.5907 26.5009 25.5697 26.5183 25.55C26.6393 25.4204 26.7571 25.4029 26.811 25.4029H27.2832C27.3032 25.4038 27.322 25.4042 27.3357 25.4044C27.3502 25.4273 27.3707 25.4649 27.3954 25.5237C27.5933 26.0183 28.1079 27.2759 28.1807 27.4214C28.1829 27.4259 28.1848 27.4298 28.1863 27.4332C28.186 27.4339 28.1857 27.4346 28.1853 27.4352C28.1112 27.5837 28.0854 27.6353 28.0162 27.7161C27.961 27.7805 27.912 27.8398 27.8674 27.8939C27.7909 27.9866 27.7274 28.0635 27.668 28.1229C27.6653 28.1257 27.6623 28.1286 27.6592 28.1317C27.5992 28.1913 27.461 28.3286 27.3914 28.5223C27.3016 28.7719 27.348 29.0216 27.4729 29.2446L27.4766 29.2512L27.4805 29.2577C27.6359 29.5167 28.1644 30.3936 28.9745 31.1163L34.9532 32.2042ZM37.1027 22.8027L37.1045 22.8044C38.9027 24.6026 39.8925 26.9948 39.8925 29.544C39.8925 34.7927 35.6135 39.0716 30.3648 39.0716C28.7695 39.0716 27.2023 38.668 25.8078 37.9082L25.6313 37.812L25.4369 37.8631L20.9687 39.0376L22.156 34.6788L22.2111 34.4762L22.1067 34.294C21.2794 32.8511 20.8372 31.2166 20.8372 29.5339C20.8372 24.2853 25.1162 20.0063 30.3648 20.0063L30.3665 20.0063C31.6187 20.0022 32.8592 20.2473 34.0157 20.7274C35.1722 21.2074 36.2216 21.9129 37.1027 22.8027ZM25.8519 37.1466L25.8549 37.1484C27.2182 37.9535 28.7751 38.3831 30.3648 38.3831C35.2392 38.3831 39.2141 34.4223 39.1938 29.544C39.1981 28.3812 38.9715 27.2291 38.5273 26.1545L38.0594 26.3479L38.5273 26.1545C38.083 25.0797 37.4298 24.1038 36.6056 23.2833C34.9411 21.6087 32.7163 20.6847 30.3547 20.6847C25.4784 20.6847 21.5055 24.6576 21.5055 29.5339L21.5055 29.5342C21.5065 31.1978 21.9753 32.8276 22.8585 34.2374L22.8584 34.2374L22.8621 34.2431L22.9421 34.3671L22.1612 37.2272L21.9303 38.073L22.7783 37.8501L25.731 37.0741L25.8519 37.1466ZM35.0374 32.2485C35.0374 32.2485 35.0372 32.2483 35.0368 32.248L35.0374 32.2485ZM27.3122 25.3727C27.3122 25.3727 27.3128 25.3732 27.3141 25.3745C27.3128 25.3734 27.3122 25.3728 27.3122 25.3727Z" fill="white" stroke="white" stroke-width="1.0125"/>
<defs>
<linearGradient id="paint0_linear_373_197" x1="30.0003" y1="59.9938" x2="30.0003" y2="-0.00630499" gradientUnits="userSpaceOnUse">
<stop stop-color="#20B038"/>
<stop offset="1" stop-color="#60D66A"/>
</linearGradient>
</defs>
</svg>
